<svg xmlns="http://www.w3.org/2000/svg" viewBox="384 250 487 337" fill="currentColor">
    <g>
        <path d="M 677.50 584.97 C668.30,583.97 653.57,580.47 643.00,576.76 C607.40,564.25 578.80,537.17 566.02,503.85 C558.13,483.29 556.02,466.24 556.01,422.91 L 556.00 390.32 L 545.25 379.89 C512.78,348.39 482.91,327.45 440.50,306.50 C428.95,300.79 418.26,295.82 416.75,295.45 L 414.00 294.78 L 414.00 424.89 L 414.00 555.00 L 436.48 555.00 L 458.96 555.00 L 459.23 455.58 L 459.50 356.16 L 462.00 353.45 C468.88,345.99 481.28,346.49 486.11,354.42 C487.92,357.38 487.99,361.62 488.00,466.30 C488.00,587.87 488.55,579.10 480.71,582.90 C476.52,584.93 475.00,585.00 436.43,584.98 C399.37,584.96 396.20,584.82 392.32,583.06 C389.73,581.88 387.44,579.89 386.32,577.83 C384.58,574.65 384.50,567.45 384.50,421.46 C384.50,276.92 384.60,268.26 386.26,265.72 C391.32,258.01 398.50,257.83 416.56,264.98 C469.29,285.84 515.30,313.18 550.75,344.73 C555.32,348.80 558.13,350.68 558.37,349.84 C558.57,349.10 559.72,344.45 560.93,339.50 C565.32,321.55 578.94,298.75 593.22,285.43 C620.24,260.23 655.47,249.66 693.00,255.49 C709.12,257.99 721.31,262.70 734.50,271.53 C758.81,287.79 775.53,313.07 781.29,342.25 L 783.42 353.00 L 821.46 353.00 C856.91,353.01 859.71,353.14 862.58,354.89 C871.75,360.48 870.38,376.43 860.38,380.61 C855.28,382.75 765.16,382.64 760.64,380.50 C755.88,378.24 754.82,375.62 753.96,364.06 C753.09,352.37 752.83,351.01 749.39,339.50 C741.78,314.10 720.10,292.57 695.50,285.99 C663.15,277.33 628.63,288.57 608.02,314.48 C596.77,328.61 590.68,344.64 588.79,365.12 L 587.62 377.75 L 594.14 385.62 C607.51,401.75 622.72,422.18 632.68,437.38 L 637.86 445.29 L 638.27 396.89 C638.71,343.91 639.03,340.64 645.51,323.50 C649.77,312.25 651.00,310.16 654.86,307.77 C658.22,305.68 659.64,305.50 673.19,305.53 C681.27,305.54 688.20,305.87 688.58,306.25 C688.97,306.63 687.47,309.35 685.25,312.28 C679.86,319.43 675.81,327.18 672.54,336.65 C667.40,351.53 667.04,358.55 667.02,443.18 C667.00,529.98 667.43,524.82 660.22,523.65 C657.05,523.13 646.13,518.06 643.26,515.76 C642.58,515.22 639.12,508.86 635.57,501.64 C627.82,485.86 609.55,455.13 596.34,435.66 C591.05,427.87 586.23,420.95 585.62,420.28 C584.79,419.39 584.66,424.51 585.12,439.78 C585.85,464.09 588.32,477.75 594.78,493.23 C606.35,520.90 628.56,540.85 658.61,550.55 C684.68,558.96 723.02,558.90 750.90,550.40 C785.79,539.77 812.08,516.39 827.12,482.62 L 830.73 474.50 L 766.62 474.00 C704.75,473.52 702.38,473.43 699.18,471.50 C689.11,465.43 689.59,449.99 700.02,444.75 C703.24,443.13 709.09,443.00 778.35,443.00 C860.88,443.00 857.55,442.75 862.15,449.21 C865.10,453.35 865.52,459.34 863.55,469.12 C856.13,505.96 832.55,539.65 798.84,561.56 C780.15,573.71 754.75,582.46 730.91,584.97 C720.18,586.10 687.95,586.10 677.50,584.97 ZM 827.42 325.25 C816.61,306.68 801.34,292.74 784.95,286.48 C781.13,285.02 777.63,283.16 777.17,282.34 C774.53,277.63 755.08,259.68 747.59,255.06 C742.23,251.74 744.49,250.79 756.00,251.52 C767.36,252.24 782.72,255.73 792.91,259.88 C818.41,270.30 843.49,294.25 857.08,321.15 C861.72,330.36 862.21,330.00 845.10,330.00 L 830.19 330.00 L 827.42 325.25 Z" />
    </g>
</svg>